# xmcd
#
# Track frame offsets:
# 150
# 22862
# 52802
# 76517
# 93607
# 118975
# 135745
# 154649
# 179986
# 195762
# 214360
# 234492
# 257812
# 281756
# 306180
# 327704
#
# Disc length: 4696 seconds
#
#
# Revision: 0
# Processed by: cddbd v1.5.1PL0 Copyright (c) Steve Scherf et al.
# Submitted via: FreeRIP 2.53 
#
DISCID=e2125610
DTITLE=Various Artist - Relax
DYEAR=1900
DGENRE=General Blues
TTITLE0=G.Miller - Moonlight Serenade
TTITLE1=K.Weill - Smoke Gets In Your Eyes
TTITLE2=J.Bendourn - Morgana
TTITLE3=Masser Coffin - Nothing Gonna Change My Love For You
TTITLE4=T.B.Schmit, D.Henley - I Can't Tell You Why
TTITLE5=E.Clapton - Tears In Heaven
TTITLE6=D.Manning - Fascination
TTITLE7=H.Carmichael - The Nearness Of You
TTITLE8=A.C.Jobim - One Note Samba
TTITLE9=D.C.Santana - Samba Pa Ti
TTITLE10=Weyer - Melody
TTITLE11=Henley Frey - Desperando
TTITLE12=Riccardi, Albertelli -Sambario
TTITLE13=Mancini Mercer - Moon River
TTITLE14=Jones Gramm - I Want To Know What Love Is
TTITLE15=Bluberry Hill - Stock, Lewis, Rose
EXTD=
EXTT0=
EXTT1=
EXTT2=
EXTT3=
EXTT4=
EXTT5=
EXTT6=
EXTT7=
EXTT8=
EXTT9=
EXTT10=
EXTT11=
EXTT12=
EXTT13=
EXTT14=
EXTT15=
PLAYORDER=
